<mxfile host="app.diagrams.net" modified="2021-06-07T07:15:51.648Z" agent="5.0 (Windows NT 10.0; Win64; x64) AppleWebKit/537.36 (KHTML, like Gecko) Chrome/90.0.4430.212 Safari/537.36" etag="Du0z4YxUDG6JFeGbFXiW" version="14.7.6" type="github">
  <diagram id="QjUY8rd6lTutOXnf1ftp" name="Page-1">
    <mxGraphModel dx="1038" dy="580" grid="0" gridSize="10" guides="1" tooltips="1" connect="1" arrows="1" fold="1" page="1" pageScale="1" pageWidth="827" pageHeight="1169" math="0" shadow="0">
      <root>
        <mxCell id="0" />
        <mxCell id="1" parent="0" />
        <mxCell id="_9kBscbex0TnuzICBj4Y-4" value="&lt;font style=&quot;font-size: 18px&quot;&gt;Cluster&lt;/font&gt;" style="rounded=1;whiteSpace=wrap;html=1;absoluteArcSize=1;arcSize=14;strokeWidth=2;fillColor=#d5e8d4;strokeColor=#82b366;" parent="1" vertex="1">
          <mxGeometry x="94" y="120" width="50" height="260" as="geometry" />
        </mxCell>
        <mxCell id="_9kBscbex0TnuzICBj4Y-5" value="" style="rounded=1;whiteSpace=wrap;html=1;absoluteArcSize=1;arcSize=14;strokeWidth=2;strokeColor=#66FF66;" parent="1" vertex="1">
          <mxGeometry x="184" y="200" width="160" height="100" as="geometry" />
        </mxCell>
        <mxCell id="_9kBscbex0TnuzICBj4Y-8" value="R0" style="rounded=1;whiteSpace=wrap;html=1;absoluteArcSize=1;arcSize=14;strokeWidth=2;strokeColor=#E1D5E7;" parent="1" vertex="1">
          <mxGeometry x="204" y="240" width="50" height="50" as="geometry" />
        </mxCell>
        <mxCell id="_9kBscbex0TnuzICBj4Y-9" value="" style="rounded=1;whiteSpace=wrap;html=1;absoluteArcSize=1;arcSize=14;strokeWidth=2;strokeColor=#66FF66;" parent="1" vertex="1">
          <mxGeometry x="378" y="200" width="160" height="100" as="geometry" />
        </mxCell>
        <mxCell id="_9kBscbex0TnuzICBj4Y-10" value="" style="rounded=1;whiteSpace=wrap;html=1;absoluteArcSize=1;arcSize=14;strokeWidth=2;strokeColor=#66FF66;" parent="1" vertex="1">
          <mxGeometry x="574" y="200" width="160" height="100" as="geometry" />
        </mxCell>
        <mxCell id="_9kBscbex0TnuzICBj4Y-12" value="P1" style="rounded=1;whiteSpace=wrap;html=1;absoluteArcSize=1;arcSize=14;strokeWidth=2;strokeColor=#6c8ebf;fillColor=#dae8fc;" parent="1" vertex="1">
          <mxGeometry x="274" y="240" width="50" height="50" as="geometry" />
        </mxCell>
        <mxCell id="_9kBscbex0TnuzICBj4Y-13" value="R0" style="rounded=1;whiteSpace=wrap;html=1;absoluteArcSize=1;arcSize=14;strokeWidth=2;strokeColor=#E1D5E7;" parent="1" vertex="1">
          <mxGeometry x="404" y="240" width="50" height="50" as="geometry" />
        </mxCell>
        <mxCell id="_9kBscbex0TnuzICBj4Y-14" value="R1" style="rounded=1;whiteSpace=wrap;html=1;absoluteArcSize=1;arcSize=14;strokeWidth=2;strokeColor=#E1D5E7;" parent="1" vertex="1">
          <mxGeometry x="474" y="240" width="50" height="50" as="geometry" />
        </mxCell>
        <mxCell id="_9kBscbex0TnuzICBj4Y-15" value="P0" style="rounded=1;whiteSpace=wrap;html=1;absoluteArcSize=1;arcSize=14;strokeWidth=2;strokeColor=#6c8ebf;fillColor=#dae8fc;" parent="1" vertex="1">
          <mxGeometry x="594" y="240" width="50" height="50" as="geometry" />
        </mxCell>
        <mxCell id="_9kBscbex0TnuzICBj4Y-16" value="R1" style="rounded=1;whiteSpace=wrap;html=1;absoluteArcSize=1;arcSize=14;strokeWidth=2;strokeColor=#E1D5E7;" parent="1" vertex="1">
          <mxGeometry x="664" y="240" width="50" height="50" as="geometry" />
        </mxCell>
        <mxCell id="_9kBscbex0TnuzICBj4Y-18" value="NODE1-â˜†Master" style="rounded=1;whiteSpace=wrap;html=1;absoluteArcSize=1;arcSize=14;strokeWidth=2;strokeColor=#FFFFFF;fillColor=none;" parent="1" vertex="1">
          <mxGeometry x="204" y="210" width="130" height="20" as="geometry" />
        </mxCell>
        <mxCell id="_9kBscbex0TnuzICBj4Y-20" value="NODE2" style="rounded=1;whiteSpace=wrap;html=1;absoluteArcSize=1;arcSize=14;strokeWidth=2;strokeColor=#FFFFFF;fillColor=none;" parent="1" vertex="1">
          <mxGeometry x="392.5" y="210" width="130" height="20" as="geometry" />
        </mxCell>
        <mxCell id="_9kBscbex0TnuzICBj4Y-21" value="NODE3" style="rounded=1;whiteSpace=wrap;html=1;absoluteArcSize=1;arcSize=14;strokeWidth=2;strokeColor=#FFFFFF;fillColor=none;" parent="1" vertex="1">
          <mxGeometry x="589" y="210" width="130" height="20" as="geometry" />
        </mxCell>
        <mxCell id="_9kBscbex0TnuzICBj4Y-26" value="1" style="edgeStyle=elbowEdgeStyle;elbow=vertical;endArrow=classic;html=1;entryX=0.25;entryY=1;entryDx=0;entryDy=0;strokeWidth=1;" parent="1" target="_9kBscbex0TnuzICBj4Y-12" edge="1">
          <mxGeometry x="0.1279" width="50" height="50" relative="1" as="geometry">
            <mxPoint x="184" y="340" as="sourcePoint" />
            <mxPoint x="304" y="320" as="targetPoint" />
            <Array as="points">
              <mxPoint x="284" y="320" />
            </Array>
            <mxPoint as="offset" />
          </mxGeometry>
        </mxCell>
        <mxCell id="_9kBscbex0TnuzICBj4Y-27" value="" style="edgeStyle=elbowEdgeStyle;elbow=vertical;endArrow=classic;html=1;exitX=0.75;exitY=1;exitDx=0;exitDy=0;" parent="1" source="_9kBscbex0TnuzICBj4Y-12" edge="1">
          <mxGeometry width="50" height="50" relative="1" as="geometry">
            <mxPoint x="328" y="330" as="sourcePoint" />
            <mxPoint x="425" y="284" as="targetPoint" />
            <Array as="points">
              <mxPoint x="390" y="309" />
              <mxPoint x="427" y="319" />
              <mxPoint x="437" y="329" />
              <mxPoint x="444" y="340" />
              <mxPoint x="584" y="350" />
            </Array>
          </mxGeometry>
        </mxCell>
        <mxCell id="_9kBscbex0TnuzICBj4Y-28" value="2" style="edgeLabel;html=1;align=center;verticalAlign=middle;resizable=0;points=[];" parent="_9kBscbex0TnuzICBj4Y-27" vertex="1" connectable="0">
          <mxGeometry x="-0.386" y="1" relative="1" as="geometry">
            <mxPoint as="offset" />
          </mxGeometry>
        </mxCell>
        <mxCell id="DW1cIaRiwFKdWYMDDjzH-1" value="" style="edgeStyle=elbowEdgeStyle;elbow=vertical;endArrow=classic;html=1;strokeWidth=1;" edge="1" parent="1" source="_9kBscbex0TnuzICBj4Y-13">
          <mxGeometry x="0.1279" width="50" height="50" relative="1" as="geometry">
            <mxPoint x="194" y="350" as="sourcePoint" />
            <mxPoint x="297" y="290" as="targetPoint" />
            <Array as="points">
              <mxPoint x="294" y="330" />
            </Array>
            <mxPoint as="offset" />
          </mxGeometry>
        </mxCell>
        <mxCell id="DW1cIaRiwFKdWYMDDjzH-2" value="3" style="edgeLabel;html=1;align=center;verticalAlign=middle;resizable=0;points=[];" vertex="1" connectable="0" parent="DW1cIaRiwFKdWYMDDjzH-1">
          <mxGeometry x="0.1906" y="1" relative="1" as="geometry">
            <mxPoint as="offset" />
          </mxGeometry>
        </mxCell>
      </root>
    </mxGraphModel>
  </diagram>
</mxfile>
